<?xml version="1.0" encoding="utf-8"?>
<!-- Generator: Adobe Illustrator 22.1.0, SVG Export Plug-In . SVG Version: 6.00 Build 0)  -->
<svg version="1.1" id="Layer_1" xmlns="http://www.w3.org/2000/svg" xmlns:xlink="http://www.w3.org/1999/xlink" x="0px" y="0px"
	 viewBox="0 0 308 39" style="enable-background:new 0 0 308 39;" xml:space="preserve">
<g>
	<path d="M2,27.3V12.2C2,10,1.9,8.1,1.7,6.5s-0.5-3.1-1-4.8h4h4.5c4.3,0,7.5,0.9,9.6,2.7s3.2,4.4,3.2,8c0,3.8-1.2,6.6-3.7,8.4
		c-2.3,1.6-6,2.5-10.8,2.6v4c0,2.3,0.1,4.2,0.3,5.7c0.2,1.5,0.5,3.1,1,4.7h-4h-4c0.5-1.6,0.8-3.2,1-4.7C1.9,31.6,2,29.6,2,27.3z
		 M7.4,20.6c3,0,5.1-0.6,6.5-1.8c1.4-1.2,2.1-3.1,2.1-5.8c0-2.6-0.6-4.5-1.9-5.8c-1.3-1.3-3.2-1.9-5.8-1.9H7.4V20.6z"/>
	<path d="M29.8,27.3L42.1,1.1h0l12.3,26.3c1.4,3,2.6,5.3,3.5,6.8c0.9,1.5,1.8,2.7,2.7,3.6h-4.5h-4.5c0.2-0.7,0.1-1.8-0.3-3.4
		c-0.4-1.5-0.9-3.2-1.7-5l-1.2-2.8H35.2L35,27.2c-0.9,2.1-1.6,4.2-2.1,6.3c-0.5,2.1-0.6,3.5-0.4,4.3H28h-4.5c1-1,1.9-2.2,2.8-3.8
		C27.3,32.5,28.4,30.3,29.8,27.3z M37.2,22.1h9.4l-4.7-10.9h0L37.2,22.1z"/>
	<path d="M73.6,27.3c0,2.3,0.1,4.2,0.3,5.7c0.2,1.5,0.5,3.1,1,4.7h-3.7h-3.7c0.5-1.6,0.8-3.2,1-4.7c0.2-1.5,0.3-3.4,0.3-5.7V7.1
		c-0.8-1.1-1.5-2-2.1-2.6c-1.3-1.5-2.1-2.4-2.5-2.7h4.3h4.3c1,1.8,1.9,3.4,2.9,4.8c0.9,1.4,2,2.9,3.3,4.6L92.6,29V12.2
		c0-2.3-0.1-4.1-0.3-5.7c-0.2-1.5-0.5-3.1-1-4.8H95h3.7c-0.5,1.6-0.8,3.2-1,4.7c-0.2,1.5-0.3,3.4-0.3,5.7v16.9
		c0,1.8,0.1,3.5,0.3,5.1c0.2,1.7,0.5,2.8,0.9,3.5H95h-3.7c-0.1-0.5-0.5-1.4-1.3-2.8c-0.8-1.3-1.8-2.7-2.8-4.1L73.6,13.2V27.3z"/>
	<path d="M111.8,33c-3.4-3.6-5.1-8.1-5.1-13.5c0-5.2,1.8-9.6,5.4-13.1c3.6-3.5,8.1-5.2,13.5-5.2c5.1,0,9.3,1.8,12.7,5.4
		c3.4,3.6,5.1,8.1,5.1,13.5c0,5.2-1.8,9.6-5.4,13c-3.6,3.5-8.1,5.2-13.5,5.2C119.4,38.3,115.2,36.5,111.8,33z M134.1,30.3
		c2.2-2.5,3.4-5.6,3.4-9.3c0-4.4-1.2-8.1-3.7-11c-2.5-2.9-5.5-4.4-9.3-4.4c-3.4,0-6.2,1.2-8.4,3.7c-2.2,2.5-3.4,5.6-3.4,9.3
		c0,4.4,1.2,8.1,3.7,11c2.5,2.9,5.5,4.4,9.2,4.4C129,34,131.8,32.7,134.1,30.3z"/>
	<path d="M152.8,27.3V12.2c0-2.3-0.1-4.1-0.3-5.7c-0.2-1.5-0.5-3.1-1-4.8h4h2.7c4.6,0,8.1,0.9,10.6,2.8c2.5,1.9,3.7,4.5,3.7,7.9
		c0,3.1-1.4,5.5-4.1,7.4c-0.9,0.6-1.8,1.1-2.8,1.5l2.6,3.9c1.2,1.8,2.6,3.6,4.1,5.5c1.5,1.8,3.5,4.2,6.1,7H172
		c-1.9-1.6-4-3.8-6.5-6.7c-2.5-2.9-4.6-5.7-6.3-8.4l-0.9-1.4v6.1c0,2.3,0.1,4.2,0.3,5.7c0.2,1.5,0.5,3.1,1,4.7h-4h-4
		c0.5-1.6,0.8-3.2,1-4.7C152.7,31.6,152.8,29.6,152.8,27.3z M158.3,19.9c2.4-0.1,4.3-0.8,5.8-2.1c1.7-1.4,2.6-3.3,2.6-5.6
		c0-2.1-0.8-3.8-2.4-5.1c-1.5-1.2-3.5-1.8-5.9-1.9V19.9z"/>
	<path d="M189.7,27.3L202,1.1h0l12.3,26.3c1.4,3,2.6,5.3,3.5,6.8c0.9,1.5,1.8,2.7,2.7,3.6H216h-4.5c0.2-0.7,0.1-1.8-0.3-3.4
		c-0.4-1.5-0.9-3.2-1.7-5l-1.2-2.8h-13.3l-0.2,0.5c-0.9,2.1-1.6,4.2-2.1,6.3c-0.5,2.1-0.6,3.5-0.4,4.3h-4.5h-4.5
		c1-1,1.9-2.2,2.8-3.8C187.2,32.5,188.3,30.3,189.7,27.3z M197.1,22.1h9.4l-4.7-10.9h0L197.1,22.1z"/>
	<path d="M234.1,27.3c0,2.3,0.1,4.2,0.3,5.7c0.2,1.5,0.5,3.1,1,4.7h-4h-4c0.5-1.6,0.8-3.2,1-4.7c0.2-1.5,0.3-3.4,0.3-5.7V6.1
		l-3.7-4.3h4.2h4.2c0,0.5,0.2,1,0.4,1.6c0.3,0.6,0.6,1.2,1.1,1.7l11.3,14h0l10.4-13.2c0.6-0.8,1.1-1.5,1.5-2.3
		c0.4-0.8,0.6-1.4,0.6-1.9h3.8h3.9c-1.1,1.6-1.9,3.2-2.3,4.7c-0.4,1.5-0.7,3.4-0.7,5.7v15.1c0,2.3,0.1,4.2,0.3,5.7
		c0.2,1.5,0.5,3.1,1,4.7h-4h-4c0.5-1.6,0.8-3.2,1-4.7c0.2-1.5,0.3-3.4,0.3-5.7V11.8h0l-11.9,15.5h0l-11.9-14.7h0V27.3z"/>
	<path d="M276,27.3l12.3-26.3h0l12.3,26.3c1.4,3,2.6,5.3,3.5,6.8c0.9,1.5,1.8,2.7,2.7,3.6h-4.5h-4.5c0.2-0.7,0.1-1.8-0.3-3.4
		c-0.4-1.5-0.9-3.2-1.7-5l-1.2-2.8h-13.3l-0.2,0.5c-0.9,2.1-1.6,4.2-2.1,6.3c-0.5,2.1-0.6,3.5-0.4,4.3h-4.5h-4.5
		c1-1,1.9-2.2,2.8-3.8C273.5,32.5,274.7,30.3,276,27.3z M283.4,22.1h9.4l-4.7-10.9h0L283.4,22.1z"/>
</g>
</svg>
